/* XPM */
static char *actor[] = {
/* columns rows colors chars-per-pixel */
"16 16 3 1",
"  c #12151a",
". c #8fa7d1",
"X c white",
/* pixels */
"XXXXXXXXXXXXXXXX",
"X              X",
"X ............ X",
"X ............ X",
"X ...... ..... X",
"X .....  ..... X",
"X ..... . .... X",
"X .... .. .... X",
"X .... .. .... X",
"X ....    .... X",
"X .... .. .... X",
"X ... .... ... X",
"X ............ X",
"X ............ X",
"X              X",
"XXXXXXXXXXXXXXXX"
};
