/* XPM */
static char *light[] = {
/* columns rows colors chars-per-pixel */
"16 16 143 2",
"   c #1a1a17",
".  c #353534",
"X  c #46464a",
"o  c #4e4f4b",
"O  c #535146",
"+  c #555356",
"@  c gray37",
"#  c #756c5e",
"$  c #70705b",
"%  c #6a6868",
"&  c #71706e",
"*  c #7c776b",
"=  c #938650",
"-  c #8a816c",
";  c #8d8d6c",
":  c #88887c",
">  c #9f9568",
",  c #a39677",
"<  c #a59c71",
"1  c #a8a54f",
"2  c #adac5f",
"3  c #bbbc58",
"4  c #a5a56f",
"5  c #a9a86b",
"6  c #b3a577",
"7  c #b7b767",
"8  c #b7b770",
"9  c #c8b76e",
"0  c #c5c533",
"q  c #c2c33e",
"w  c #dedf33",
"e  c #e2e219",
"r  c #eaeb1d",
"t  c #fdfd02",
"y  c #fdfd03",
"u  c yellow",
"i  c #ffff07",
"p  c #ffff08",
"a  c #ffff0e",
"s  c #f1f11e",
"d  c #fdfd14",
"f  c #ffff17",
"g  c #fefe1d",
"h  c #f9fa21",
"j  c #fdfd22",
"k  c #fcfc27",
"l  c #ffff25",
"z  c #ffff27",
"x  c #fefd2e",
"c  c #f7f83a",
"v  c #ffff31",
"b  c #ffff36",
"n  c #fffe3c",
"m  c #fffe3f",
"M  c #dadb4d",
"N  c #cdcd72",
"B  c #d8c46f",
"V  c #d3c076",
"C  c #fcfc42",
"Z  c #fefd47",
"A  c #ffff45",
"S  c #fffe49",
"D  c #fdfd4c",
"F  c #ffff4f",
"G  c #f1f356",
"H  c #fffe56",
"J  c #fafa5c",
"K  c #ffff58",
"L  c #ffff5c",
"P  c #fffe62",
"I  c #fdfd6a",
"U  c #f1f17d",
"Y  c #fffe77",
"T  c #fffe7e",
"R  c #8e8a89",
"E  c #958f86",
"W  c #949496",
"Q  c #9d9d95",
"!  c #9f9f96",
"~  c #afa188",
"^  c #afa38b",
"/  c #acac93",
"(  c #afab9c",
")  c #aeae9d",
"_  c #b9ab80",
"`  c #a5a5a5",
"'  c #babaa3",
"]  c #b8b8a4",
"[  c #bebeaa",
"{  c #dac88f",
"}  c #c0c0b1",
"|  c #e9d688",
" . c #e7d395",
".. c #e0e182",
"X. c #f7e38a",
"o. c #f9e58b",
"O. c #fde98a",
"+. c #f4e295",
"@. c #f6e695",
"#. c #f2e39f",
"$. c #f5e39b",
"%. c #fefe83",
"&. c #ffff85",
"*. c #f4f49f",
"=. c #ffff93",
"-. c #ffff97",
";. c #ffff9d",
":. c #f5e8b3",
">. c #f7e9b8",
",. c #fff6af",
"<. c #ffffa0",
"1. c #fdfdb7",
"2. c #ffffbe",
"3. c #ccccc6",
"4. c #c9c9c8",
"5. c #d3d3c2",
"6. c #dbdbce",
"7. c #dfdfd5",
"8. c #deded9",
"9. c #f6ecc8",
"0. c #f6efd2",
"q. c #fff6c2",
"w. c #fff6c3",
"e. c #fdfdc6",
"r. c #ffffc7",
"t. c #f7f7d4",
"y. c #f9f2d4",
"u. c #fffed7",
"i. c #fbfade",
"p. c #fefdd8",
"a. c #fefedb",
"s. c gray91",
"d. c #f9f4e3",
"f. c #faf6eb",
"g. c #f9f9e1",
"h. c #ffffe3",
"j. c #f0f0f5",
"k. c #f5f5ff",
"l. c #fffff2",
"z. c #fcfcf5",
"x. c #fffff7",
"c. c #fafaff",
"v. c white",
/* pixels */
"v.v.x.v.K u i j u u %.f u u -.v.",
"v.v.x.;.p u A p.u l c.m u u g e.",
"x.v.&.u i u P e.u f ;.S u Y m i ",
"l.v f l.T j p s 7 0 r f u l i u ",
"v i u l x u q E _ 6 ~ 2 h u u u ",
"u S =.C u M R $.a.,.O.~ 4 p u -.",
"u H v.I u 5 { q.f.0.@.X.- w u Z ",
"u u u f u 1  .y.d.9.#.X., q u y ",
"i u S i.1...< w.:.#.+.B * c u g ",
"u v v.c.p.G > >.#.| 9 # 8 u l x.",
"D f l g.r.N + ( V = % 3 f u a v ",
"v.A u t.v.: $ ! O & *.n u u u u ",
"v.2.u t.j.W ; ) X e -.J b u p i ",
"v.v.x.5.8.`   o 4.v.k.D L a u <.",
"v.v.v.] ] ! @ . s.z.k.C u C h.v.",
"v.v.v.[ / ] 5.[ 7.6.3.U 2.v.v.v."
};
