/* XPM */
static char *python[] = {
/* columns rows colors chars-per-pixel */
"16 16 7 1",
"  c black",
". c blue",
"X c #008000",
"o c red",
"O c #808000",
"+ c yellow",
"@ c None",
/* pixels */
"@@@@@  @@@@@@@@@",
"@@@  OO@@@@@@@@@",
"@@@    O@@@@@@@@",
"@@@++ . @@@@@@@@",
"@@@  O O @@@@@@@",
" OOOOOOOO O@@@@@",
" OOOOOXXX O@@@@@",
"@@XXXX XOXX@@@@@",
"@@XXXX XOXX@@@@@",
"@@ oo XXOXX@@@@@",
"@@o@@@ @XXO@@@@@",
"@@@@@@@XOO@@@@@@",
"@@@  OXOO  @@ @@",
"@@@  XOO OO@@O  ",
"@@@XXXOOOOOOO@@@",
"@@@@@OXX@XX@@@@@"
};
