/* XPM */
static char *colormap[] = {
/* columns rows colors chars-per-pixel */
"12 10 30 1",
"  c black",
". c DarkSlateGray",
"X c navy",
"o c blue",
"O c SeaGreen",
"+ c green",
"@ c LimeGreen",
"# c DodgerBlue",
"$ c cyan",
"% c SlateGray",
"& c firebrick",
"* c sienna",
"= c red",
"- c tomato",
"; c purple",
": c magenta",
"> c peru",
", c orange",
"< c gold",
"1 c yellow",
"2 c gray",
"3 c PaleGreen",
"4 c SkyBlue",
"5 c tan",
"6 c violet",
"7 c wheat",
"8 c gainsboro",
"9 c LemonChiffon",
"0 c lavender",
"q c white",
/* pixels */
"  ..%%2288qq",
"  ..%%2288qq",
"XXoo##4400$$",
"XXoo##4400$$",
";;&&OO@@++33",
";;&&OO@@++33",
"::==--,,<<11",
"::==--,,<<11",
"66**>>557799",
"66**>>557799"
};
