/* XPM */
static char *colormap[] = {
/* columns rows colors chars-per-pixel */
"16 16 30 1",
"  c black",
". c DarkSlateGray",
"X c #7e7e7e",
"o c navy",
"O c blue",
"+ c #008000",
"@ c SeaGreen",
"# c LimeGreen",
"$ c DodgerBlue",
"% c cyan",
"& c SlateGray",
"* c firebrick",
"= c sienna",
"- c red",
"; c tomato",
": c #800080",
"> c magenta",
", c peru",
"< c orange",
"1 c gold",
"2 c yellow",
"3 c PaleGreen",
"4 c SkyBlue",
"5 c tan",
"6 c violet",
"7 c wheat",
"8 c gainsboro",
"9 c LemonChiffon",
"0 c lavender",
"q c white",
/* pixels */
"   ..&&&XXX88qqq",
"   ..&&&XXX88qqq",
"   ..&&&XXX88qqq",
"oooOO$$$44400%%%",
"oooOO$$$44400%%%",
"oooOO$$$44400%%%",
":::**@@@###++333",
":::**@@@###++333",
":::**@@@###++333",
":::**@@@###++333",
">>>--;;;<<<11222",
">>>--;;;<<<11222",
">>>--;;;<<<11222",
"666==,,,55577999",
"666==,,,55577999",
"666==,,,55577999"
};
