/* XPM */
static char *coord[] = {
/* columns rows colors chars-per-pixel */
"14 14 2 1",
"  c black",
". c white",
/* pixels */
"..............",
".             ",
". .. .. .. .. ",
".  .  . .  .. ",
".             ",
". .. .. .. .. ",
". .. .. .. .. ",
".             ",
". ..  . .  .. ",
".  . .. ..  . ",
".             ",
". .. .. .. .. ",
". ..  . .. .. ",
".             "
};
