/* XPM */
static char *data[] = {
/* columns rows colors chars-per-pixel */
"18 13 2 1",
"  c black",
". c white",
/* pixels */
"..................",
".                .",
"..................",
"......    ........",
"...... ... .......",
"...... .... ......",
"...... .... ......",
"...... .... ......",
"...... ... .......",
"......    ........",
"..................",
".                .",
".................."
};
