/* XPM */
static char *dir[] = {
/* columns rows colors chars-per-pixel */
"16 16 6 1",
"  c black",
". c gray47",
"X c #f8f800",
"o c gray72",
"O c #f8f8f8",
"+ c white",
/* pixels */
"++++++++++++++++",
"++++++++++++++++",
"++++++++++++++++",
"OO.....OOOOOOOO+",
"O.oXoXo.OOOOOOO+",
".oXoXoXo......O+",
".OOOOOOOOOOOO. +",
".OXoXoXoXoXoX. +",
".OoXoXoXoXoXo. +",
".OXoXoXoXoXoX. +",
".OoXoXoXoXoXo. +",
".OXoXoXoXoXoX. +",
".OoXoXoXoXoXo. +",
".OXoXoXoXoXoX. +",
".............. +",
"O              +"
};
