/* XPM */
static char *light[] = {
/* columns rows colors chars-per-pixel */
"17 19 237 2",
"   c #1a1a17",
".  c #353534",
"X  c #46464a",
"o  c #4e4f4b",
"O  c #535146",
"+  c #555356",
"@  c gray37",
"#  c #62625f",
"$  c #756c5e",
"%  c #70705b",
"&  c #6a6868",
"*  c #6d6d6c",
"=  c #6b6b70",
"-  c #71706e",
";  c #7c776b",
":  c #737372",
">  c #938650",
",  c #8a816c",
"<  c #8d8d6c",
"1  c #88887c",
"2  c #928569",
"3  c #9f9568",
"4  c #a39677",
"5  c #a59c71",
"6  c #a8a54f",
"7  c #adac5f",
"8  c #bbbc58",
"9  c #a7a766",
"0  c #a5a56f",
"q  c #a9a86b",
"w  c #ada277",
"e  c #b3a577",
"r  c #b7b767",
"t  c #b7b770",
"y  c #c8b76e",
"u  c #c5c533",
"i  c #c0c13c",
"p  c #c2c33e",
"a  c #dedf33",
"s  c #e2e219",
"d  c #eaeb1d",
"f  c #fdfd00",
"g  c #fdfd02",
"h  c #fdfd03",
"j  c #fefe00",
"k  c yellow",
"l  c #ffff01",
"z  c #ffff02",
"x  c #ffff03",
"c  c #fdfd04",
"v  c #ffff04",
"b  c #ffff05",
"n  c #ffff06",
"m  c #ffff07",
"M  c #fdfd08",
"N  c #fdfd0a",
"B  c #ffff08",
"V  c #ffff0a",
"C  c #ffff0c",
"Z  c #ffff0e",
"A  c #f1f11e",
"S  c #ffff10",
"D  c #ffff11",
"F  c #ffff12",
"G  c #fdfd14",
"H  c #ffff14",
"J  c #fefe16",
"K  c #ffff16",
"L  c #ffff17",
"P  c #ffff18",
"I  c #fefe1d",
"U  c #ffff1c",
"Y  c #f9fa21",
"T  c #fdfd22",
"R  c #ffff21",
"E  c #fefe23",
"W  c #ffff22",
"Q  c #fcfc27",
"!  c #ffff25",
"~  c #ffff27",
"^  c #ffff28",
"/  c #fffe2a",
"(  c #fefd2e",
")  c #f7f83a",
"_  c #ffff31",
"`  c #ffff32",
"'  c #ffff33",
"]  c #ffff36",
"[  c #ffff3b",
"{  c #fffe3c",
"}  c #fffe3f",
"|  c #c2c340",
" . c #cecf4a",
".. c #dadb4d",
"X. c #cdcd72",
"o. c #d8c46f",
"O. c #d3c076",
"+. c #fcfc42",
"@. c #fdfd43",
"#. c #ffff40",
"$. c #fefd47",
"%. c #ffff44",
"&. c #ffff45",
"*. c #fffe49",
"=. c #feff4b",
"-. c #fdfd4c",
";. c #fffe4c",
":. c #ffff4f",
">. c #f1f356",
",. c #fffe54",
"<. c #fffe56",
"1. c #fafa5c",
"2. c #ffff58",
"3. c #ffff5c",
"4. c #fffe62",
"5. c #fefe67",
"6. c #fdfd6a",
"7. c #fefd6f",
"8. c #f1f17d",
"9. c #fffe77",
"0. c #fffe7e",
"q. c #8e8a89",
"w. c #8d8e90",
"e. c #958f86",
"r. c #949496",
"t. c #9d9d95",
"y. c #9f9f96",
"u. c #9c9c9b",
"i. c #9d9da0",
"p. c #afa188",
"a. c #afa38b",
"s. c #acac93",
"d. c #afab9c",
"f. c #aeae9d",
"g. c #b9ab80",
"h. c #beb087",
"j. c #a5a5a5",
"k. c #a7a7a6",
"l. c #babaa3",
"z. c #b8b8a4",
"x. c #bbbba5",
"c. c #bebeaa",
"v. c #b8b7b1",
"b. c #d1c18f",
"n. c #dac88f",
"m. c #c0c0b1",
"M. c #e9d688",
"N. c #e7d395",
"B. c #e0e182",
"V. c #f7e38a",
"C. c #f8e488",
"Z. c #f9e58b",
"A. c #fde98a",
"S. c #f4e295",
"D. c #f6e695",
"F. c #f2e39f",
"G. c #f5e39b",
"H. c #f4e59b",
"J. c #f5e49a",
"K. c #f6e59a",
"L. c #fffe81",
"P. c #fefe83",
"I. c #ffff85",
"U. c #fffe8f",
"Y. c #f4f49f",
"T. c #ffff93",
"R. c #fefe95",
"E. c #ffff97",
"W. c #ffff9d",
"Q. c #f3e8b6",
"!. c #f5e8b3",
"~. c #f7e9b8",
"^. c #fff6af",
"/. c #fefda1",
"(. c #ffffa0",
"). c #fdfdb7",
"_. c #ffffb4",
"`. c #ffffbe",
"'. c #ccccc6",
"]. c #c9c9c8",
"[. c #d3d3c2",
"{. c #d4d4c2",
"}. c #d9d9cc",
"|. c #dbdbce",
" X c #dfdfd5",
".X c #deded9",
"XX c #f6ecc8",
"oX c #faefc3",
"OX c #f6efd2",
"+X c #f3f3c0",
"@X c #fff6c2",
"#X c #fff6c3",
"$X c #fff5c5",
"%X c #fbf3cf",
"&X c #fdfdc6",
"*X c #ffffc4",
"=X c #ffffc7",
"-X c #f7f7d4",
";X c #f9f2d4",
":X c #f8f8d2",
">X c #f8f9d4",
",X c #fffdd5",
"<X c #fffed7",
"1X c #fbfade",
"2X c #fefdd8",
"3X c #fefedb",
"4X c gray91",
"5X c #ebebf5",
"6X c #f6f2ea",
"7X c #f6f3eb",
"8X c #f9f4e3",
"9X c #f8f4ea",
"0X c #faf6eb",
"qX c #f9f6ee",
"wX c #f9f9e1",
"eX c #ffffe3",
"rX c #fefdec",
"tX c #f0f0f5",
"yX c #f5f5ff",
"uX c #f7f7ff",
"iX c #fefdf1",
"pX c #fefdf3",
"aX c #fffff2",
"sX c #fcfcf5",
"dX c #fdfdf4",
"fX c #fffff7",
"gX c #fafaff",
"hX c #fffff8",
"jX c #fffff9",
"kX c #fdfdff",
"lX c #fefdfd",
"zX c #fefdfe",
"xX c #fefdff",
"cX c #fffffd",
"vX c #fefeff",
"bX c #fffffe",
"nX c white",
/* pixels */
"nXnXfXnX2.k m T k k k P.L k k E.nX",
"nXnXfXW.B k &.2Xm k ~ gX} k k I &X",
"fXnXI.k m k 4.&XT k L W.*.k 9.{ m ",
"nXW.! P.T k B m k k k m k 7.rX<.k ",
"aX_ L aX0.T B A | r u d G k ~ B k ",
"_ m k ! ( k p e.g.g.e a.7 Y k k k ",
"k *.T.+.k ..q.G.2X3X^.A.p.0 B g E.",
"k <.nX6.k q n.@X6X0XOXD.V., a k $.",
"k k k L k 6 N.;X0X8XXXG.Z.4 p k h ",
"k k k m k 9 b.#XqX;XQ.G.Z.2  .k k ",
"m k *.1X).B.5 #X6X!.F.S.o.; ) k I ",
"k _ nXgX<X>.3 ~.oXG.M.y $ t k Q fX",
":.G ! wX=XX.+ d.w O.> & 8 L k Z _ ",
"nX&.k -XnX1 % y.q.O - Y.{ k k k k ",
"nX`.k -XtXr.< f.: X s E.1.] k m m ",
"fXnX6.~.5Xv.i.u.# = W.>X).2XG k B ",
"nXnXsX[..Xj.  o * ].nXyX-.3.Z k (.",
"nXnXnXz.l.t.@ . k.4XsXyX+.k +.eXnX",
"nXnXnXc.s.l.[.m.}. X|.'.8.`.nXnXnX"
};
