/* XPM */
static char *plusnode[] = {
/* columns rows colors chars-per-pixel */
"11 11 5 1",
"  c black",
". c gray50",
"X c #c0c0c0",
"o c white",
"O c None",
/* pixels */
"OOOOOOOOOOO",
"O.........O",
"O.ooooooo.O",
"O.ooo ooo.O",
"O.ooo ooo.O",
"O.o     o.O",
"O.ooo ooo.O",
"O.ooo ooo.O",
"O.ooooooo.O",
"O.........O",
"OOOOOOOOOOO"
};
