/* XPM */
static char *python[] = {
/* columns rows colors chars-per-pixel */
"14 15 8 1",
"  c black",
". c blue",
"X c green",
"o c red",
"O c #808000",
"+ c yellow",
"@ c #c0c0c0",
"# c None",
/* pixels */
"####  ########",
"### OO########",
"###   O#######",
"###+ . #######",
"### O O ######",
" OOOOOOO O####",
" OOOOXXX O####",
"##XXX XOXX####",
"## o XXOXX####",
"##o## #XXO####",
"######XOO#####",
"### OXOO  # ##",
"### XOO OO#O  ",
"###XXOOOOOO###",
"####OXX#XX####"
};
