/* XPM */
static char *question[] = {
/* columns rows colors chars-per-pixel */
"16 16 16 1",
"  c black",
". c #182828",
"X c #182c30",
"o c #203030",
"O c #203438",
"+ c #203838",
"@ c #203840",
"# c #203c40",
"$ c #284040",
"% c #284048",
"& c #284448",
"* c #484c48",
"= c #787c78",
"- c #f80000",
"; c #b0c0d8",
": c #f8fcf8",
/* pixels */
"****************",
";;;;;-----;;;;;*",
";;;;-:-----;;;;*",
";;;-:-- --- ;;;*",
";;;--- ;--- ;;;*",
";;;;  ;;--- ;;;*",
";;;;;;;;-- ;;;;*",
";;;;;;;-- ;;;;;*",
";;;;;;--- ;;;;;*",
";;;;;;=-=;;;;;;*",
";;;;;;=:-;;;;;;*",
";;;;;;---=;;;;;*",
";;;;;;;- =;;;;;*",
";;;;;;;;=;;;;;;*",
"****************",
"+.$#%#+&@OOoX&+."
};
