/* XPM */
static char *ren[] = {
/* columns rows colors chars-per-pixel */
"12 12 2 1",
"  c #0000c0",
". c #b2c0dc",
/* pixels */
"..      ....",
"..       ...",
".        ...",
".   ...  ...",
".  ....  ...",
".  ...   ...",
".  ..   ....",
".       ....",
".       ....",
".  ...   ...",
"   ...    ..",
"   .....   ."
};
