/* XPM */
static char *renwin[] = {
/* columns rows colors chars-per-pixel */
"17 17 11 1",
"  c black",
". c navy",
"X c blue",
"o c #008080",
"O c #00bebe",
"+ c cyan",
"@ c #808080",
"# c #a0a0a4",
"$ c #ffffbe",
"% c #c0c0c0",
"& c white",
/* pixels */
"                 ",
" ++++++++++++++++",
" +O             o",
" +O     XXX     o",
" +O  @% ... @%  o",
" +O %%%%%%%%%%% o",
" +O @@@@@@@@@@@ o",
" +O @$$$$$$$ %& o",
" +O @$$$$$$$  & o",
" +O @$$$$$$$ #& o",
" +O @$$$$$$$ #& o",
" +O @$$$$$$$  & o",
" +O @$$$$$$$ @& o",
" +O &&&&&&&&&&& o",
" +O             o",
" +OOOOOOOOOOOOOOo",
" +ooooooooooooooo"
};
